<?xml version="1.0" standalone="no"?>
<svg xmlns="http://www.w3.org/2000/svg" viewBox="0 0 141.888 36" width="141.888" height="36"><g fill="#cca131" color="#cca131" transform="translate(0 3.9999999999999982) scale(0.2800001)"><svg width="100.0" height="100.0" x="0.0" y="0.0" viewBox="0 0 100 100"><g><g><g><path fill="currentColor" d="M98.306,26.34c-0.131,0.005-0.247,0.01-0.351,0.014c0.416,0.085-0.287,0.457-8.211,1.794     c-4.914,2.184-3.292,6.235-4.081,9.675c-4.006,20.872-22.77,28.5-25.934,29.605c-2.438,0.995-5.171,1.361-4.024,3.567     c3.385,8.138,4.249,8.692,4.249,8.692s0.802,0.483,1.565,0.4c0.764-0.082,1.517-0.253,2.684-0.86     c0.28-0.188,1.738,0.723,2.107,1.529c-1.118-0.128-1.621-0.855-2.107-0.669c-2.069,0.722,0.545,1.085,0.545,1.085h1.428     c0.921,0,0.99,0.158,1.842,0c1.27-0.607,1.469-0.754,1.705-0.754c0.201-0.095,1.963,1.271,1.963,1.5     c0,0.228-1.506-1.031-1.963-1.031c-0.407,0-0.682,0.282-1.164,0.669c0.418,0.444,1.164,0.578,1.365,1.443     c-2.006-1.366-2.861-1.081-2.861-1.081l-12.871,0.359c0,0-1.21-0.209-2.94,0.722c0-1.045,2.368-1.25,2.368-1.25     s4.062-0.098,5.553-0.188c1.687-0.496,0.104-1.144,0.104-1.144s-2.99-0.93-5.656-0.48c-4.229-0.647-4.395-0.241-4.834-0.115     c-0.398-0.111-1.129-0.632-3.13,0.69c0.077-0.549,0.731-0.785,1.131-1.024c0.399-0.238,0.673-0.383,1.999-0.354     c2.128,0.045,4.277-0.025,4.277-0.025s-3.001-9.555-2.854-10.696c0.148-1.141,1.254-1.94,1.512-2.724     c0-1.158-3.211-1.729-3.211-1.729s-10.236-1.592-20.461-2.541c-9.973,0-23.99,4.878-23.99,4.878s-4.148,0.802-2.782-1.686     s19.841-7.168,19.841-7.168s-13.889,2.422-11.782,0.58s18.537-6.754,18.537-6.754s-3.079,0.787-0.841-1.5     c2.237-2.287,26.031-11.947,40.777-16.173c4.811-11.062,11.307-14.237,16.558-12.801l4.827,2.333     c2.129,0,4.946-0.186,5.997,0.821C95.966,24.394,95.082,23.766,98.306,26.34z M53.516,67.218     c-0.906,0.263-1.824,1.166-1.744,2.32c0.097,1.647,1.111,7.997,2.408,8.991c1.298,0.993,1.869,0.894,3.075,0.285     c0.437-0.423-3.944-8.392-3.944-8.392c-0.267-0.491-0.122-1.146,0.32-1.471l1.672-1.432     C54.279,66.736,54.649,66.672,53.516,67.218z"></path></g></g></g></svg></g><path fill="#0a1256" fill-rule="nonzero" d="M5.54 4.58L7.78 4.58L2.95 8.83L8.35 15.48L6.41 15.48L1.61 9.43L1.61 15.48L0 15.48L0 0.86L1.61 0L1.61 8.23L5.54 4.58ZM17.81 5.52L17.81 5.52L16.49 6.43Q15.67 5.71 14.74 5.71L14.74 5.71Q13.37 5.71 12.31 7.13L12.31 7.13L12.31 15.48L10.70 15.48L10.70 4.58L12.07 4.58L12.22 5.74L12.26 5.74Q13.68 4.30 15.17 4.30L15.17 4.30Q16.92 4.30 17.81 5.52ZM27.62 8.86L27.62 15.48L26.42 15.48L26.18 14.30Q24.72 15.77 22.54 15.77L22.54 15.77Q20.88 15.77 19.90 14.84Q18.91 13.92 18.91 12.38L18.91 12.38Q18.91 8.64 24.38 8.64L24.38 8.64L26.04 8.64L26.04 8.50Q26.04 5.64 23.26 5.64L23.26 5.64Q21.67 5.64 20.21 6.70L20.21 6.70L19.68 5.81Q21.34 4.30 23.71 4.30L23.71 4.30Q25.61 4.30 26.62 5.47Q27.62 6.65 27.62 8.86L27.62 8.86ZM26.04 12.77L26.04 9.82L24.58 9.82Q20.64 9.82 20.64 12.24L20.64 12.24Q20.64 13.27 21.25 13.86Q21.86 14.45 22.97 14.45L22.97 14.45Q23.93 14.45 24.82 13.97Q25.70 13.49 26.04 12.77L26.04 12.77ZM40.18 10.06L40.18 10.58L32.40 10.58Q32.50 12.34 33.61 13.39Q34.73 14.45 36.50 14.45L36.50 14.45Q37.99 14.45 39.41 13.56L39.41 13.56L39.96 14.52Q38.38 15.77 36.14 15.77L36.14 15.77Q33.55 15.77 32.02 14.06L32.02 14.06Q30.60 12.53 30.60 10.08L30.60 10.08Q30.60 7.54 32.11 5.83L32.11 5.83Q33.48 4.30 35.50 4.30L35.50 4.30Q37.92 4.30 39.19 6.26L39.19 6.26Q40.18 7.80 40.18 10.06L40.18 10.06ZM32.38 9.29L32.38 9.29L38.52 9.29Q38.45 7.54 37.67 6.55Q36.89 5.57 35.52 5.57L35.52 5.57Q34.22 5.57 33.35 6.60Q32.47 7.63 32.38 9.29ZM52.37 8.98L52.37 15.48L50.78 15.48L50.78 9.10Q50.78 5.69 47.76 5.69L47.76 5.69Q46.94 5.69 46.08 6.11Q45.22 6.53 44.81 7.13L44.81 7.13L44.81 15.48L43.20 15.48L43.20 0.84L44.81 0L44.81 5.74Q46.30 4.30 48.26 4.30L48.26 4.30Q52.37 4.30 52.37 8.98L52.37 8.98ZM64.85 10.06L64.85 10.58L57.07 10.58Q57.17 12.34 58.28 13.39Q59.40 14.45 61.18 14.45L61.18 14.45Q62.66 14.45 64.08 13.56L64.08 13.56L64.63 14.52Q63.05 15.77 60.82 15.77L60.82 15.77Q58.22 15.77 56.69 14.06L56.69 14.06Q55.27 12.53 55.27 10.08L55.27 10.08Q55.27 7.54 56.78 5.83L56.78 5.83Q58.15 4.30 60.17 4.30L60.17 4.30Q62.59 4.30 63.86 6.26L63.86 6.26Q64.85 7.80 64.85 10.06L64.85 10.06ZM57.05 9.29L57.05 9.29L63.19 9.29Q63.12 7.54 62.34 6.55Q61.56 5.57 60.19 5.57L60.19 5.57Q58.90 5.57 58.02 6.60Q57.14 7.63 57.05 9.29ZM74.35 6.53L71.69 15.48L69.96 15.48L66.36 4.58L68.09 4.58L70.82 13.61L73.44 4.58L75.29 4.58L77.78 13.61L80.52 4.58L82.25 4.58L78.62 15.48L76.90 15.48L74.35 6.53ZM93.10 10.06L93.10 10.58L85.32 10.58Q85.42 12.34 86.53 13.39Q87.65 14.45 89.42 14.45L89.42 14.45Q90.91 14.45 92.33 13.56L92.33 13.56L92.88 14.52Q91.30 15.77 89.06 15.77L89.06 15.77Q86.47 15.77 84.94 14.06L84.94 14.06Q83.52 12.53 83.52 10.08L83.52 10.08Q83.52 7.54 85.03 5.83L85.03 5.83Q86.40 4.30 88.42 4.30L88.42 4.30Q90.84 4.30 92.11 6.26L92.11 6.26Q93.10 7.80 93.10 10.06L93.10 10.06ZM85.30 9.29L85.30 9.29L91.44 9.29Q91.37 7.54 90.59 6.55Q89.81 5.57 88.44 5.57L88.44 5.57Q87.14 5.57 86.27 6.60Q85.39 7.63 85.30 9.29ZM97.56 14.33L97.34 15.48L96.12 15.48L96.12 0.86L97.73 0L97.73 5.71Q98.86 4.30 100.87 4.30L100.87 4.30Q103.34 4.30 104.71 6.07L104.71 6.07Q105.89 7.56 105.89 9.82L105.89 9.82Q105.89 12.79 104.18 14.42L104.18 14.42Q102.82 15.77 100.80 15.77L100.80 15.77Q98.69 15.77 97.56 14.33L97.56 14.33ZM97.73 7.51L97.73 7.51L97.73 12.72Q98.04 13.49 98.84 13.97Q99.65 14.45 100.61 14.45L100.61 14.45Q102.17 14.45 103.16 13.24Q104.16 12.02 104.16 10.06L104.16 10.06Q104.16 7.85 103.06 6.65L103.06 6.65Q102.12 5.62 100.66 5.62L100.66 5.62Q99.72 5.62 98.89 6.16Q98.06 6.70 97.73 7.51Z" transform="translate(36, 10.26)"></path></svg>